<svg xmlns="http://www.w3.org/2000/svg" width="35" height="35" viewBox="0 0 35 35">
    <defs>
        <style>
            .cls-3{fill:#fff}
        </style>
    </defs>
    <g id="_btn_new" transform="translate(-337 -652)">
        <g id="사각형_662" fill="#fff" stroke="#ddd" transform="translate(337 652)">
            <rect width="35" height="35" stroke="none" rx="17.5"/>
            <rect width="34" height="34" x=".5" y=".5" fill="none" rx="17"/>
        </g>
        <g id="그룹_2026">
            <path id="패스_17337" fill="#111" d="M14.026 41.821H8.963a.765.765 0 0 1-.545-.228l-1.58-1.664a2 2 0 0 0-1.426-.573H1.971A1.973 1.973 0 0 0 0 41.327v9.6a1.973 1.973 0 0 0 1.971 1.971h12.065A1.973 1.973 0 0 0 16 50.917v-7.125a1.973 1.973 0 0 0-1.974-1.971z" transform="translate(346.5 623.644)"/>
            <rect id="사각형_3799" width="5" height="1" class="cls-3" rx=".5" transform="translate(352 670)"/>
            <rect id="사각형_3800" width="5" height="1" class="cls-3" rx=".5" transform="translate(355 668) rotate(90)"/>
        </g>
    </g>
</svg>
