<svg xmlns="http://www.w3.org/2000/svg" width="40" height="40" viewBox="0 0 40 40">
    <defs>
        <style>
            .cls-4{stroke:#111}.cls-3{fill:#111}.cls-4{fill:#fbcea8}.cls-5{stroke:none}.cls-6{fill:none}
        </style>
    </defs>
    <g id="후불결제icon" transform="translate(-147.999 -560)">
        <g id="카드">
            <g id="사각형_3748" fill="#fff" stroke="#111" transform="translate(149 566)">
                <rect width="36" height="26" class="cls-5" rx="2"/>
                <rect width="35" height="25" x=".5" y=".5" class="cls-6" rx="1.5"/>
            </g>
            <rect id="사각형_3752" width="6" height="1" class="cls-3" rx=".5" transform="translate(153 583)"/>
            <rect id="사각형_3753" width="12" height="1" class="cls-3" rx=".5" transform="translate(153 586)"/>
            <g id="사각형_3783" class="cls-4">
                <path d="M0 0H36V6H0z" class="cls-5" transform="translate(149 570)"/>
                <path d="M0.5 0.5H35.5V5.5H0.5z" class="cls-6" transform="translate(149 570)"/>
            </g>
        </g>
        <g id="시계" transform="translate(11)">
            <g id="사각형_3772" class="cls-4" transform="translate(158 580)">
                <rect width="18" height="18" class="cls-5" rx="9"/>
                <rect width="17" height="17" x=".5" y=".5" class="cls-6" rx="8.5"/>
            </g>
            <rect id="사각형_3773" width="5" height="1" class="cls-3" rx=".5" transform="translate(167.5 584.5) rotate(90)"/>
            <rect id="사각형_3774" width="5" height="1" class="cls-3" rx=".5" transform="translate(170.036 592.743) rotate(-135)"/>
        </g>
    </g>
</svg>
