<svg xmlns="http://www.w3.org/2000/svg" width="20" height="20" viewBox="0 0 20 20">
    <defs>
        <style>
            .cls-4{fill:#fafafa}
        </style>
    </defs>
    <g id="ico_coupon" transform="translate(1.66 -76.548)">
        <path id="guide" fill="none" d="M0 0H20V20H0z" opacity="0.5" transform="translate(-1.66 76.548)"/>
        <path id="패스_17370" fill="#fa3726" d="M16.08 80H5.9a.582.582 0 0 0-.379.137l-.693.605-.693-.605A.582.582 0 0 0 3.752 80h-2.68A1.012 1.012 0 0 0 0 80.936v8.42a1.012 1.012 0 0 0 1.072.936h2.68a.582.582 0 0 0 .379-.137l.693-.605.693.6a.578.578 0 0 0 .379.138H16.08a1.011 1.011 0 0 0 1.072-.936v-8.42A1.012 1.012 0 0 0 16.08 80z" transform="translate(-0.236 1.403)"/>
        <path id="패스_17371" fill="#ffbe2c" d="M16.08 0H5.9a.582.582 0 0 0-.379.137l-.697.605-.692-.605A.582.582 0 0 0 3.752 0h-2.68A1.012 1.012 0 0 0 0 .936v8.42a1.012 1.012 0 0 0 1.072.936h2.68a.582.582 0 0 0 .379-.137l.693-.605.693.6a.578.578 0 0 0 .379.138H16.08a1.011 1.011 0 0 0 1.072-.936V.936A1.012 1.012 0 0 0 16.08 0z" transform="translate(3.485 77.804) rotate(30)"/>
        <g id="그룹_2002" transform="translate(6.545 81.157) rotate(30)">
            <path id="패스_17361" d="M1.332 2.664a1.332 1.332 0 1 1 1.332-1.332 1.334 1.334 0 0 1-1.332 1.332zm0-1.776a.444.444 0 1 0 .444.444.444.444 0 0 0-.444-.444z" class="cls-4" transform="translate(3.392 0.439)"/>
            <path id="패스_17362" d="M1.332 2.664a1.332 1.332 0 1 1 1.332-1.332 1.334 1.334 0 0 1-1.332 1.332zm0-1.776a.444.444 0 1 0 .444.444.445.445 0 0 0-.444-.444z" class="cls-4" transform="translate(6.731 4.538)"/>
            <path id="패스_17363" d="M.478 6.7a.478.478 0 0 1-.367-.784L4.894.172a.478.478 0 1 1 .734.613L.845 6.525a.478.478 0 0 1-.367.175z" class="cls-4" transform="translate(3.453 0.473)"/>
            <path id="사각형_3794" d="M0 0H0.82V1.166H0z" class="cls-4" transform="translate(0)"/>
            <path id="사각형_3795" d="M0 0H0.82V1.166H0z" class="cls-4" transform="translate(0 6.162)"/>
            <path id="사각형_3796" d="M0 0H0.82V0.999H0z" class="cls-4" transform="translate(0 4.163)"/>
            <path id="사각형_3797" d="M0 0H0.82V0.999H0z" class="cls-4" transform="translate(0 2.165)"/>
        </g>
    </g>
</svg>
