<svg xmlns="http://www.w3.org/2000/svg" width="30" height="30" viewBox="0 0 30 30">
    <defs>
        <style>
            .cls-4{fill:none}.cls-3{fill:#fff}.cls-4{stroke:#f41300;stroke-linecap:round}
        </style>
    </defs>
    <g id="ico_fail" transform="translate(-183 -229)">
        <path id="guide" fill="none" d="M0 0H30V30H0z" opacity="0.53" transform="translate(183 229)"/>
        <path id="다각형_25" fill="#ffbe2c" d="M13.325 2.569a2 2 0 0 1 3.35 0l11.308 17.338A2 2 0 0 1 26.308 23H3.692a2 2 0 0 1-1.675-3.093z" transform="translate(183 234)"/>
        <rect id="사각형_3645" width="2" height="7" class="cls-3" rx="1" transform="translate(197 243)"/>
        <rect id="사각형_3646" width="2" height="2" class="cls-3" rx="1" transform="translate(197 251)"/>
        <path id="패스_17321" d="M-14939-17498v2" class="cls-4" transform="translate(21882.695 7915.65) rotate(-30)"/>
        <path id="패스_17322" d="M-14940-17495h2" class="cls-4" transform="matrix(0.966, -0.259, 0.259, 0.966, 19160.641, 13267.73)"/>
        <path id="패스_17323" d="M0 0h2" class="cls-4" transform="translate(199.904 232.893) rotate(-60)"/>
    </g>
</svg>
