<svg xmlns="http://www.w3.org/2000/svg" width="12" height="12" viewBox="0 0 12 12">
    <g fill="none">
        <path d="M0 0H12V12H0z" transform="translate(-1028 207) translate(1028 -207)"/>
        <g>
            <path d="M4.363 10.91H1.636C.229 10.909 0 10.68 0 9.273V4.765a2.572 2.572 0 0 1 1.006-2.033L3.9.522a2.561 2.561 0 0 1 3.1 0l2.911 2.206a2.574 2.574 0 0 1 1 2.038v4.507c0 1.407-.229 1.636-1.636 1.636H6.546V7.546a1 1 0 0 0-1-1h-.182a1 1 0 0 0-1 1v3.363z" transform="translate(-1028 207) translate(1028.545 -206.454)"/>
            <path fill="#111" d="M3.363 9.91V7.546c0-1.104.898-2.001 2.001-2.001h.182c1.103 0 2 .897 2 2V9.91h1.727c.323 0 .505-.015.606-.03.015-.1.03-.283.03-.606V4.765c0-.488-.226-.953-.603-1.24L6.398 1.316C6.13 1.112 5.795 1 5.454 1c-.34 0-.675.112-.943.317l-2.898 2.21C1.229 3.82 1 4.283 1 4.765v4.508c0 .323.015.505.03.606.1.015.283.03.607.03h1.726m1 1H1.636C.23 10.909 0 10.679 0 9.273V4.765c0-.792.376-1.552 1.006-2.033L3.904.522C4.346.185 4.896 0 5.454 0c.559 0 1.11.185 1.55.522l2.907 2.206c.625.477.998 1.239.998 2.037v4.508c0 1.407-.23 1.636-1.636 1.636H6.546V7.546c0-.552-.449-1.001-1-1.001h-.182c-.552 0-1 .449-1 1v3.365z" transform="translate(-1028 207) translate(1028.545 -206.454)"/>
        </g>
    </g>
</svg>
