<svg xmlns="http://www.w3.org/2000/svg" width="80" height="80" viewBox="0 0 80 80">
    <defs>
        <style>
            .cls-6,.cls-7,.cls-8{fill:none}.cls-6{stroke:#111}.cls-6,.cls-8{stroke-linecap:round}.cls-7{opacity:.5}.cls-8{stroke:#f41300}.cls-10,.cls-9{stroke:none}.cls-10{fill:#111}
        </style>
    </defs>
    <g id="icn_handshake" transform="translate(-136 -15)">
        <circle id="O" cx="40" cy="40" r="40" fill="#fff6ef" transform="translate(136 15)"/>
        <path id="guide" fill="none" d="M0 0H48V48H0z" opacity="0.455" transform="translate(152 31)"/>
        <g id="악수" transform="translate(-1.695 0.305)">
            <path id="guide-2" fill="none" d="M0 0H40V40H0z" opacity="0.472" transform="translate(157.695 36.695)"/>
            <g id="Shape" fill="#fff">
                <path d="M24.456 46.53c-.421 0-.837-.112-1.203-.324-.592-.34-3.41-1.848-6.394-3.444-3.567-1.91-7.61-4.073-9.143-4.93-2.772-1.553-4.124-3.12-4.276-3.303C1.623 32.596.666 30.073.745 27.421c.078-2.657 1.186-5.124 3.12-6.948 1.855-1.748 4.278-2.71 6.825-2.71 1.343 0 2.648.263 3.88.783 1.273.538 2.403 1.324 3.36 2.337 1.758 1.773 2.718 2.189 3.489 2.523.715.31 1.333.578 2.168 1.64l2.206 2.339 7.73 8.191c.44.466.673 1.076.655 1.718-.019.64-.286 1.236-.753 1.676-.446.423-1.031.657-1.647.657l-.07-.001c-.433-.013-.934-.17-1.345-.402.293.702.218 1.604.057 2.143-.245.82-.914 1.451-1.746 1.648-.15.036-.32.054-.504.054-.453 0-1.035-.118-1.535-.342.14.328.22.707.23 1.107.018.69-.174 1.342-.527 1.787-.458.578-1.144.91-1.882.91z" class="cls-9" transform="translate(159.222 22.02)"/>
                <path d="M24.456 46.03c.564 0 1.119-.25 1.49-.72.586-.74.56-2.2-.087-2.887-.374-.372-.034-.862.381-.55.467.494 1.657.813 2.318.656.661-.157 1.188-.654 1.383-1.305.194-.651.192-1.688-.275-2.182-.617-.597.191-1.04.518-.574.346.368 1.035.644 1.539.658.504.015.993-.172 1.36-.52.366-.345.58-.823.595-1.327.015-.504-.172-.993-.518-1.36l-9.953-10.546c-1.662-2.128-2.25-.728-5.637-4.142-3.581-3.799-9.563-3.975-13.361-.394C.41 24.417.234 30.4 3.815 34.198c0 0 1.309 1.61 4.145 3.197 2.836 1.587 14.24 7.63 15.544 8.379.299.173.627.257.952.257m0 1c-.51 0-1.012-.136-1.454-.392-.583-.335-3.398-1.842-6.379-3.437-3.569-1.91-7.614-4.074-9.151-4.935-2.782-1.557-4.191-3.151-4.406-3.405C1.165 32.833.163 30.187.245 27.407c.082-2.791 1.246-5.383 3.278-7.298 1.947-1.836 4.492-2.847 7.167-2.847 1.41 0 2.78.277 4.074.824 1.336.564 2.521 1.388 3.524 2.45 1.689 1.7 2.56 2.078 3.33 2.411.74.321 1.442.625 2.348 1.773l2.19 2.321 7.731 8.192c.532.563.813 1.3.79 2.075-.022.775-.345 1.494-.908 2.026-.56.53-1.3.814-2.075.792-.209-.006-.426-.038-.641-.091.039.518-.025 1.041-.154 1.475-.296.99-1.105 1.753-2.11 1.992-.188.045-.396.067-.619.067-.254 0-.539-.031-.83-.093.013.113.022.228.025.345.02.805-.21 1.575-.635 2.11-.553.699-1.382 1.1-2.274 1.1z" class="cls-10" transform="translate(159.222 22.02)"/>
            </g>
            <g id="Shape-2" fill="#fbcea8">
                <path d="M17.42 51.575c-.237 0-.473-.035-.701-.103-.836-.25-1.48-.932-1.68-1.78-.202-.85.067-1.748.701-2.346l3.281-3.1.002-.001.003-.002c.453-.419 1.043-.65 1.66-.65.672 0 1.321.28 1.782.768.917.972.88 2.517-.082 3.444l-.002.002-.002.002-3.281 3.098c-.456.43-1.053.668-1.68.668zm-3.542-3.756c-.67 0-1.317-.278-1.778-.763-.925-.983-.88-2.536.1-3.462l3.281-3.099.007-.006.007-.006c.447-.392 1.02-.608 1.614-.608.67 0 1.32.28 1.78.766.909.962.894 2.454-.033 3.398l-.007.007-.007.006-3.281 3.098c-.457.432-1.054.67-1.683.67zm-3.538-3.75c-.67 0-1.32-.279-1.78-.765-.926-.983-.881-2.535.099-3.462l3.282-3.099c.456-.43 1.052-.667 1.68-.667.67 0 1.32.28 1.78.768.45.475.686 1.097.667 1.75-.02.655-.292 1.262-.767 1.71l-3.281 3.1c-.458.429-1.054.665-1.68.665zm-3.54-3.75c-.671 0-1.32-.28-1.781-.767-.925-.983-.88-2.535.099-3.462L8.4 32.99l.002-.002.002-.002c.454-.419 1.044-.65 1.66-.65.672 0 1.322.28 1.782.769.917.971.88 2.516-.082 3.443l-.001.002-.002.002-3.282 3.098c-.456.43-1.053.667-1.68.667zm26.994-5.04l-.366-.387-9.31-9.865c-.255-.271-.6-.426-.973-.437h-.04c-.357 0-.696.135-.956.38l-4.71 4.446c-.576.543-1.329.843-2.12.843h-.001l-.094-.002c-.815-.025-1.601-.38-2.158-.975-.33-.35-.503-.807-.489-1.288.015-.475.222-.933.568-1.257l6.561-6.198c1.9-1.798 4.387-2.789 7.003-2.789 2.708 0 5.258 1.051 7.179 2.959 1.889 1.876 2.957 4.374 3.007 7.036.051 2.661-.922 5.199-2.738 7.145l-.363.39z" class="cls-9" transform="translate(158.53 22.032)"/>
                <path d="M17.42 51.075c.49 0 .971-.186 1.338-.532l3.281-3.098c.77-.741.798-1.963.065-2.74-.733-.777-1.955-.82-2.74-.095l-3.28 3.1c-.507.477-.72 1.189-.56 1.866.161.677.671 1.217 1.338 1.417.184.055.372.082.558.082m-3.542-3.756c.48 0 .963-.176 1.34-.532l3.281-3.099c.735-.747.746-1.942.027-2.703-.72-.762-1.914-.818-2.701-.126l-3.282 3.098c-.781.74-.817 1.971-.08 2.755.383.403.899.607 1.415.607m-3.538-3.75c.48 0 .96-.176 1.336-.53l3.282-3.098c.782-.739.818-1.972.08-2.754-.739-.783-1.972-.819-2.754-.08l-3.282 3.098c-.781.74-.817 1.972-.079 2.755.383.404.9.609 1.417.609m-3.54-3.75c.479 0 .96-.177 1.336-.531l3.281-3.099c.77-.741.799-1.963.066-2.74-.733-.777-1.955-.82-2.74-.094l-3.281 3.098c-.781.74-.817 1.972-.08 2.755.384.406.9.61 1.417.61m26.993-5.27c3.57-3.826 3.458-9.796-.256-13.484-3.714-3.688-9.686-3.76-13.487-.161l-6.562 6.199c-.252.236-.4.562-.41.907-.01.345.117.68.354.93.47.503 1.12.797 1.808.818.688.021 1.356-.232 1.856-.704l4.71-4.447c.366-.344.853-.53 1.355-.515.502.014.977.227 1.322.592l9.31 9.865M17.42 52.075c-.286 0-.57-.042-.845-.124-1.006-.301-1.781-1.123-2.023-2.144-.126-.53-.1-1.077.062-1.58-.238.06-.485.092-.736.092-.806 0-1.586-.335-2.14-.919-.76-.808-.977-1.935-.664-2.924-.237.061-.484.093-.734.093-.807 0-1.588-.336-2.143-.92-.76-.808-.978-1.934-.665-2.923-.237.06-.483.092-.733.092-.807 0-1.589-.336-2.143-.923-1.114-1.183-1.06-3.053.118-4.168l3.29-3.107c.547-.505 1.257-.783 2-.783.81 0 1.591.338 2.146.926.755.8.973 1.921.666 2.908.24-.063.49-.095.744-.095.809 0 1.59.337 2.145.925.54.572.825 1.321.803 2.108-.009.293-.06.578-.15.848.225-.054.457-.082.691-.082.808 0 1.589.336 2.143.923.758.802.983 1.91.678 2.893.245-.064.499-.098.757-.098.808 0 1.59.337 2.145.925 1.104 1.17 1.06 3.03-.099 4.147l-.007.007-3.282 3.098c-.55.52-1.268.805-2.024.805zM33.796 36.01L23.755 25.37c-.164-.174-.386-.273-.624-.28h-.026c-.229 0-.446.086-.613.244l-4.71 4.446c-.696.656-1.616 1.006-2.574.977-.946-.03-1.86-.443-2.507-1.134-.42-.445-.642-1.03-.623-1.644.018-.607.282-1.192.725-1.607l6.56-6.196c1.992-1.886 4.602-2.926 7.346-2.926 2.84 0 5.516 1.103 7.531 3.104 1.982 1.968 3.102 4.59 3.155 7.381.053 2.792-.967 5.454-2.872 7.496l-.727.779z" class="cls-10" transform="translate(158.53 22.032)"/>
            </g>
            <path id="선_205" d="M0 0L8 8" class="cls-6" transform="translate(180.695 52.695)"/>
            <path id="선_206" d="M0 0L9 9" class="cls-6" transform="translate(176.695 55.695)"/>
        </g>
        <g id="x" transform="translate(-157.267 -189.267)">
            <path id="guide-3" d="M0 0H6V6H0z" class="cls-7" transform="translate(349.267 222.267)"/>
            <path id="패스_2623" d="M9391 4912l-1 1" class="cls-8" transform="translate(-9036.733 -4688.734)"/>
            <path id="패스_17298" d="M9391 4912l-1 1" class="cls-8" transform="translate(-9039.733 -4685.734)"/>
            <path id="패스_2624" d="M9390 4912l1 1" class="cls-8" transform="translate(-9039.733 -4688.734)"/>
            <path id="패스_17297" d="M9390 4912l1 1" class="cls-8" transform="translate(-9036.733 -4685.734)"/>
        </g>
        <g id="x-2" transform="translate(-193.267 -153.267)">
            <path id="guide-4" d="M0 0H6V6H0z" class="cls-7" transform="translate(349.267 222.267)"/>
            <path id="패스_2623-2" d="M9391 4912l-1 1" class="cls-8" transform="translate(-9036.733 -4688.734)"/>
            <path id="패스_17298-2" d="M9391 4912l-1 1" class="cls-8" transform="translate(-9039.733 -4685.734)"/>
            <path id="패스_2624-2" d="M9390 4912l1 1" class="cls-8" transform="translate(-9039.733 -4688.734)"/>
            <path id="패스_17297-2" d="M9390 4912l1 1" class="cls-8" transform="translate(-9036.733 -4685.734)"/>
        </g>
    </g>
</svg>
