<svg xmlns="http://www.w3.org/2000/svg" width="40" height="40" viewBox="0 0 40 40">
    <defs>
        <style>
            .cls-1{fill:none}.cls-3{fill:#fbcea8}.cls-6,.cls-7{stroke:none}.cls-7{fill:#111}
        </style>
    </defs>
    <g id="ico_benefit3" transform="translate(-147.999 -98)">
        <path id="guide" d="M0 0H40V40H0z" class="cls-1" transform="translate(147.999 98)"/>
        <g id="그룹_2017" transform="translate(89 100)">
            <g id="패스_17374" fill="none">
                <path d="M75.937 13.174c.261-.227.559-.477.874-.743C79.139 10.474 82 7.817 82 5V3.3A3.285 3.285 0 0 0 78.719.023L64.281 0A3.285 3.285 0 0 0 61 3.281v1.7c0 2.817 3.189 5.5 5.517 7.455.316.265.614.516.874.743a1.069 1.069 0 0 1 0 1.651c-.261.227-.559.477-.874.743C64.189 17.526 61 20.206 61 23.023v1.7A3.285 3.285 0 0 0 64.281 28l14.3-.063A3.406 3.406 0 0 0 82 24.656s.033-.493 0-1.7-1.652-4.293-5.152-7.363c-.329-.276-.641-.536-.911-.772a1.069 1.069 0 0 1 0-1.651z" class="cls-6" transform="translate(0 0)"/>
                <path d="M64.28 1C63.023 1 62 2.024 62 3.281v1.696c0 2.351 2.983 4.858 5.16 6.69.32.267.62.52.888.753.466.406.733.981.733 1.58 0 .599-.267 1.175-.733 1.58-.267.232-.568.485-.888.754-2.177 1.83-5.16 4.338-5.16 6.69v1.695C62 25.977 63.023 27 64.277 27l14.303-.063c1.29 0 2.42-1.066 2.42-2.281l.002-.065c0-.005.03-.483-.002-1.603-.018-.661-1.19-3.46-4.803-6.632-.33-.276-.642-.537-.917-.776-.466-.406-.733-.981-.733-1.58 0-.599.267-1.174.733-1.58.267-.232.568-.485.888-.754C78.558 9.657 81 7.295 81 5V3.305c0-1.258-1.023-2.282-2.283-2.282L64.28 1m.001-1L78.72.023C80.528.023 82 1.495 82 3.305V5c0 2.817-2.86 5.474-5.189 7.432-.316.265-.614.516-.874.742-.248.216-.39.517-.39.826 0 .31.142.61.39.826.27.235.581.495.91.771 3.5 3.07 5.12 6.161 5.153 7.363.033 1.203 0 1.696 0 1.696 0 1.809-1.61 3.281-3.42 3.281L64.281 28C62.472 28 61 26.528 61 24.719v-1.696c0-2.817 3.189-5.497 5.517-7.455.316-.265.614-.516.874-.742.248-.216.39-.517.39-.826 0-.31-.142-.61-.39-.826-.26-.226-.558-.477-.874-.742C64.189 10.474 61 7.794 61 4.977V3.28C61 1.472 62.472 0 64.281 0z" class="cls-7" transform="translate(0 0)"/>
            </g>
            <g id="패스_17373" class="cls-3">
                <path d="M169.18 334.5h-11.03c-.323 0-.492-.278-.549-.397-.136-.282-.158-.712.098-1.034l.022-.027.012-.014c.913-1.137 4.208-4.4 4.86-5.042l.03-.031c.295-.294.664-.456 1.042-.456s.747.162 1.041.455l.034.034c1.886 1.86 4.152 4.161 4.858 5.04l.01.014.025.03c.255.32.232.749.096 1.031-.057.12-.226.397-.55.397z" class="cls-6" transform="translate(-92.001 -311)"/>
                <path d="M169.18 334c.024 0 .068-.051.098-.114.067-.137.083-.353-.038-.505l-.032-.04c-.692-.862-2.943-3.146-4.819-4.997l-.036-.036c-.202-.202-.44-.309-.688-.309-.248 0-.485.107-.688.31l-.034.033c-1.875 1.85-4.127 4.135-4.82 4.999l-.033.04c-.12.152-.104.368-.038.505.03.063.074.114.098.114h11.03m0 1h-11.03c-1 0-1.523-1.389-.841-2.242l.033-.043c1.024-1.275 4.879-5.065 4.929-5.114.802-.802 1.986-.802 2.789 0 .05.05 3.904 3.839 4.928 5.114l.034.043c.68.853.159 2.242-.842 2.242z" class="cls-7" transform="translate(-92.001 -311)"/>
            </g>
            <g id="패스_17376" class="cls-3">
                <path d="M161.974 332.469c-.248 0-.492-.108-.688-.303l-.025-.025c-1.404-1.385-3.092-3.098-3.616-3.75l-.004-.006-.02-.024c-.157-.198-.142-.463-.058-.638.04-.083.132-.224.296-.224h8.23c.163 0 .255.14.295.224.085.175.1.44-.058.637l-.011.014-.013.016c-.523.651-2.21 2.364-3.614 3.75l-.027.026c-.195.195-.44.303-.687.303z" class="cls-6" transform="translate(-90.309 -320.999)"/>
                <path d="M158 328c0 .019.004.038.014.05l.021.027c.51.636 2.183 2.333 3.577 3.708l.028.027c.102.103.218.157.334.157.116 0 .231-.054.333-.156l.03-.03c1.394-1.375 3.066-3.071 3.576-3.706l.022-.029c.01-.011.012-.03.012-.049H158m-.142-1h8.23c.746 0 1.136 1.036.628 1.673l-.025.031c-.764.952-3.64 3.78-3.678 3.817-.599.598-1.482.598-2.08 0-.038-.037-2.914-2.865-3.678-3.817l-.026-.03c-.508-.638-.118-1.674.629-1.674z" class="cls-7" transform="translate(-90.309 -320.999)"/>
            </g>
        </g>
        <g id="타원_557" fill="#fbcea8" stroke="#111" transform="translate(162 112)">
            <circle cx="12" cy="12" r="12" class="cls-6"/>
            <circle cx="12" cy="12" r="11.5" class="cls-1"/>
        </g>
        <text id="_24" fill="#111" font-family="NotoSansCJKkr-Medium, Noto Sans CJK KR" font-size="11px" font-weight="500" letter-spacing="-0.025em" transform="translate(174 128)">
            <tspan x="-6.133" y="0">24</tspan>
        </text>
    </g>
</svg>
