<svg xmlns="http://www.w3.org/2000/svg" width="40" height="40" viewBox="0 0 40 40">
    <defs>
        <style>
            .cls-8{fill:none}.cls-5{fill:#fff;stroke:#111}.cls-6,.cls-7{stroke:none}.cls-7{fill:#111}
        </style>
    </defs>
    <g id="ico_benefit2" transform="translate(-29 -1143)">
        <path id="guide" fill="none" d="M0 0H40V40H0z" opacity="0.472" transform="translate(29 1143)"/>
        <g id="빼기_17" fill="#fff">
            <path d="M35 25.5H3C1.62 25.5.5 24.38.5 23v-5.703c.76-.205 1.447-.634 1.968-1.236.623-.72.966-1.642.966-2.594 0-.953-.343-1.875-.966-2.595C1.948 10.27 1.26 9.841.5 9.636V3C.5 1.62 1.621.5 3 .5h32c1.378 0 2.5 1.121 2.5 2.5v6.619c-1.738.436-3 2.019-3 3.848 0 1.829 1.262 3.412 3 3.848V23c0 1.379-1.122 2.5-2.5 2.5z" class="cls-6" transform="translate(30 1150)"/>
            <path d="M35 25c1.103 0 2-.897 2-2v-5.314c-1.76-.613-3-2.295-3-4.22 0-1.924 1.24-3.606 3-4.22V3c0-1.103-.897-2-2-2H3c-1.103 0-2 .897-2 2v6.27c.708.26 1.346.697 1.846 1.275.702.811 1.088 1.848 1.088 2.922 0 1.073-.386 2.11-1.088 2.92-.5.58-1.138 1.017-1.846 1.276V23c0 1.103.897 2 2 2h32m0 1H3c-1.654 0-3-1.346-3-3v-6.107c.81-.125 1.551-.536 2.09-1.16.544-.629.844-1.434.844-2.266 0-.833-.3-1.638-.844-2.267-.539-.623-1.28-1.035-2.09-1.16V3c0-1.654 1.346-3 3-3h32c1.654 0 3 1.346 3 3v7.031c-1.711.23-3 1.707-3 3.436 0 1.728 1.29 3.205 3 3.435V23c0 1.654-1.346 3-3 3z" class="cls-7" transform="translate(30 1150)"/>
        </g>
        <g id="빼기_18" fill="#fbcea8">
            <path d="M27.5 25.5H3C1.62 25.5.5 24.38.5 23v-5.703c.76-.205 1.447-.634 1.968-1.236.623-.72.966-1.642.966-2.594 0-.953-.343-1.875-.966-2.595C1.948 10.27 1.26 9.841.5 9.636V3C.5 1.62 1.621.5 3 .5h24.5v25z" class="cls-6" transform="translate(30 1150)"/>
            <path d="M27 25V1H3c-1.103 0-2 .897-2 2v6.27c.708.26 1.346.697 1.846 1.275.702.811 1.088 1.849 1.088 2.922 0 1.073-.386 2.11-1.088 2.92-.5.58-1.138 1.017-1.846 1.276V23c0 1.103.897 2 2 2h24m1 1H3c-1.654 0-3-1.346-3-3v-6.107c.81-.125 1.551-.536 2.09-1.16.544-.629.844-1.434.844-2.266 0-.833-.3-1.638-.844-2.267-.539-.623-1.28-1.035-2.09-1.16V3c0-1.654 1.346-3 3-3h25v26z" class="cls-7" transform="translate(30 1150)"/>
        </g>
        <g id="그룹_1997" transform="translate(1)">
            <rect id="사각형_3737" width="1" height="13" fill="#111" rx=".5" transform="translate(47.317 1157.12) rotate(30)"/>
            <g id="타원_551" class="cls-5" transform="translate(39.621 1158.45) rotate(30)">
                <circle cx="2" cy="2" r="2" class="cls-6"/>
                <circle cx="2" cy="2" r="1.5" class="cls-8"/>
            </g>
            <g id="타원_552" class="cls-5" transform="translate(47.415 1162.95) rotate(30)">
                <circle cx="2" cy="2" r="2" class="cls-6"/>
                <circle cx="2" cy="2" r="1.5" class="cls-8"/>
            </g>
        </g>
    </g>
</svg>
