<svg xmlns="http://www.w3.org/2000/svg" width="40" height="40" viewBox="0 0 40 40">
    <defs>
        <style>
            .cls-4,.cls-5{stroke:none}.cls-5{fill:#111}
        </style>
    </defs>
    <g id="ico_benefit4" transform="translate(-147.999 -98)">
        <path id="guide" fill="none" d="M0 0H40V40H0z" opacity="0.4" transform="translate(147.999 98)"/>
        <g id="패스_17382" fill="#fbcea8">
            <path d="M279.686 36.935L267.35 24.6V7.154c4.529.123 8.74 1.918 11.907 5.086 3.283 3.285 5.092 7.69 5.093 12.407v.006c.005 4.671-1.69 9.116-4.665 12.282z" class="cls-4" transform="translate(-98.851 93.353)"/>
            <path d="M279.669 36.21c2.673-3.043 4.187-7.197 4.182-11.557v-.006c-.001-4.583-1.758-8.863-4.947-12.053-2.956-2.957-6.848-4.683-11.053-4.919v16.718l11.818 11.817m.022 1.437l-12.84-12.84V6.647h.003c10.027 0 17.995 7.973 17.997 18v.006c.006 4.818-1.75 9.592-5.16 12.994z" class="cls-5" transform="translate(-98.851 93.353)"/>
        </g>
        <g id="패스_17383" fill="#fff">
            <path d="M17.026 54.627c-4.414 0-8.564-1.719-11.685-4.84C2.22 46.666.5 42.516.5 38.102c0-4.414 1.719-8.564 4.84-11.685 1.542-1.542 3.346-2.747 5.36-3.582 1.862-.771 3.819-1.19 5.825-1.25V38.31l.147.146 11.68 11.68c-3.078 2.9-7.08 4.491-11.327 4.491z" class="cls-4" transform="translate(149.999 80.874)"/>
            <path d="M17.026 54.127c3.945 0 7.673-1.416 10.603-4.008L16.026 38.517v-16.41c-1.765.11-3.488.508-5.133 1.19-1.954.81-3.703 1.978-5.199 3.474-3.026 3.026-4.693 7.05-4.693 11.331 0 4.28 1.667 8.305 4.693 11.331 3.027 3.027 7.051 4.694 11.332 4.694m0 1c-4.357 0-8.714-1.662-12.039-4.987-6.648-6.648-6.648-17.428 0-24.076 3.193-3.193 7.524-4.987 12.039-4.987v17.025L29.064 50.14c-3.324 3.325-7.681 4.987-12.038 4.987z" class="cls-5" transform="translate(149.999 80.874)"/>
        </g>
    </g>
</svg>
