<svg xmlns="http://www.w3.org/2000/svg" id="ico_benefit1" width="40" height="40" viewBox="0 0 40 40">
    <defs>
        <style>
            .cls-3{fill:#fff}.cls-5{fill:#111}.cls-6,.cls-7{stroke:none}.cls-7{fill:#111}
        </style>
    </defs>
    <path id="guide" fill="none" d="M0 0H40V40H0z" opacity="0.5"/>
    <g id="합치기_30" fill="#fff" stroke-miterlimit="10">
        <path d="M13265.46 6854.271H13234.538c-.573 0-1.039-.536-1.039-1.195v-4.574h15.588l.005-.495.1-9.665v-.006c0-.587.465-1.065 1.038-1.065h10.771c.362 0 .702.196.887.512l.005.008.003.007 4.458 7.041c.096.165.147.354.147.546v7.821c0 .587-.467 1.065-1.041 1.065z" class="cls-6" transform="translate(-13229 -6823.771)"/>
        <path d="M13265.46 6853.771c.298 0 .541-.253.541-.565v-7.821c0-.103-.025-.199-.075-.287l-4.47-7.063c-.097-.165-.267-.264-.455-.264h-10.77c-.297 0-.54.254-.54.565v.01l-.109 10.656h-15.583v4.074c0 .377.247.695.54.695h30.921m0 1h-30.922c-.85 0-1.539-.76-1.539-1.695v-5.074h15.593l.1-9.666c0-.865.689-1.565 1.538-1.565h10.771c.54 0 1.042.287 1.318.76l4.462 7.048c.144.243.22.52.22.806v7.821c0 .862-.69 1.565-1.541 1.565z" class="cls-7" transform="translate(-13229 -6823.771)"/>
    </g>
    <g id="패스_17350" class="cls-3">
        <path d="M163.002 309.504c-1.38 0-2.502-1.122-2.502-2.502 0-1.38 1.122-2.502 2.502-2.502 1.38 0 2.502 1.122 2.502 2.502 0 1.38-1.122 2.502-2.502 2.502z" class="cls-6" transform="translate(-150 -276.001)"/>
        <path d="M163.002 309.004c1.104 0 2.002-.898 2.002-2.002 0-1.104-.898-2.002-2.002-2.002-1.104 0-2.002.898-2.002 2.002 0 1.104.898 2.002 2.002 2.002m0 1c-1.655 0-3.002-1.347-3.002-3.002 0-1.655 1.347-3.002 3.002-3.002 1.655 0 3.002 1.347 3.002 3.002 0 1.655-1.347 3.002-3.002 3.002z" class="cls-7" transform="translate(-150 -276.001)"/>
    </g>
    <g id="패스_17372" class="cls-3">
        <path d="M163.002 309.504c-1.38 0-2.502-1.122-2.502-2.502 0-1.38 1.122-2.502 2.502-2.502 1.38 0 2.502 1.122 2.502 2.502 0 1.38-1.122 2.502-2.502 2.502z" class="cls-6" transform="translate(-133 -276.001)"/>
        <path d="M163.002 309.004c1.104 0 2.002-.898 2.002-2.002 0-1.104-.898-2.002-2.002-2.002-1.104 0-2.002.898-2.002 2.002 0 1.104.898 2.002 2.002 2.002m0 1c-1.655 0-3.002-1.347-3.002-3.002 0-1.655 1.347-3.002 3.002-3.002 1.655 0 3.002 1.347 3.002 3.002 0 1.655-1.347 3.002-3.002 3.002z" class="cls-7" transform="translate(-133 -276.001)"/>
    </g>
    <g id="사각형_3799" fill="#fbcea8" stroke="#111" transform="translate(4 8)">
        <rect width="23" height="19" class="cls-6" rx="2"/>
        <rect width="22" height="18" x=".5" y=".5" fill="none" rx="1.5"/>
    </g>
    <rect id="사각형_3791" width="10" height="1" class="cls-5" rx=".5" transform="translate(1 12)"/>
    <rect id="사각형_3792" width="10" height="1" class="cls-5" rx=".5" transform="translate(2 15)"/>
    <rect id="사각형_3793" width="10" height="1" class="cls-5" rx=".5" transform="translate(1 18)"/>
</svg>
