<svg xmlns="http://www.w3.org/2000/svg" width="40" height="40" viewBox="0 0 40 40">
    <defs>
        <style>
            .cls-1{fill:none}.cls-3{fill:#111}.cls-5{stroke:none}
        </style>
    </defs>
    <g id="ico_benefit6" transform="translate(-147.999 -98)">
        <path id="guide" d="M0 0H40V40H0z" class="cls-1" transform="translate(147.999 98)"/>
        <g id="x_x" transform="translate(122 -5)">
            <g id="사각형_3625" fill="#fff" stroke="#111" transform="translate(28 105)">
                <rect width="24" height="36" class="cls-5" rx="6"/>
                <rect width="23" height="35" x=".5" y=".5" class="cls-1" rx="5.5"/>
            </g>
            <circle id="타원_507" cx="1" cy="1" r="1" class="cls-3" transform="translate(39 137)"/>
            <rect id="사각형_3786" width="6" height="1" class="cls-3" rx=".5" transform="translate(37 108)"/>
        </g>
        <g id="사각형_3798" fill="#fbcea8" stroke="#111">
            <path d="M6 0h12a6 6 0 0 1 6 6v4a6 6 0 0 1-6 6H0V6a6 6 0 0 1 6-6z" class="cls-5" transform="translate(162 109)"/>
            <path d="M6 .5h12A5.5 5.5 0 0 1 23.5 6v4a5.5 5.5 0 0 1-5.5 5.5H1a.5.5 0 0 1-.5-.5V6A5.5 5.5 0 0 1 6 .5z" class="cls-1" transform="translate(162 109)"/>
        </g>
        <circle id="타원_559" cx="1" cy="1" r="1" class="cls-3" transform="translate(169 116)"/>
        <circle id="타원_560" cx="1" cy="1" r="1" class="cls-3" transform="translate(173 116)"/>
        <circle id="타원_561" cx="1" cy="1" r="1" class="cls-3" transform="translate(177 116)"/>
    </g>
</svg>
