<svg xmlns="http://www.w3.org/2000/svg" width="20" height="20" viewBox="0 0 20 20">
    <defs>
        <style>
            .cls-3{fill:#111}
        </style>
    </defs>
    <g id="_btn_new" transform="translate(-344.5 -660)">
        <g id="패스_17337" fill="none" stroke="none">
            <path d="M15.784 42.087h-5.7a.867.867 0 0 1-.613-.252L7.7 39.991a2.272 2.272 0 0 0-1.6-.635H2.218A2.2 2.2 0 0 0 0 41.54v10.632a2.2 2.2 0 0 0 2.218 2.184h13.577A2.2 2.2 0 0 0 18 52.165v-7.894a2.2 2.2 0 0 0-2.216-2.184z" transform="translate(345.498 622.144)"/>
            <path fill="#111" d="M6.105 40.356H2.218c-.672 0-1.218.531-1.218 1.184v10.632c0 .653.546 1.184 1.218 1.184H15.79c.327-.002.634-.128.864-.357.226-.224.35-.518.348-.834v-7.894c0-.652-.546-1.184-1.218-1.184h-5.698c-.498 0-.982-.2-1.326-.552l-.007-.006-1.766-1.832c-.226-.217-.547-.341-.882-.341m0-1c.587 0 1.166.219 1.59.635l1.778 1.844c.156.159.382.252.613.252h5.698c1.223 0 2.218.98 2.218 2.184v7.894c.006 1.201-.985 2.186-2.207 2.19H2.218C.995 54.356 0 53.377 0 52.173V41.54c0-1.204.995-2.184 2.218-2.184h3.887z" transform="translate(345.498 622.144)"/>
        </g>
        <rect id="사각형_3799" width="6" height="1" class="cls-3" rx=".5" transform="translate(351.5 669.5)"/>
        <rect id="사각형_3800" width="6" height="1" class="cls-3" rx=".5" transform="translate(355 667) rotate(90)"/>
    </g>
</svg>
