<svg xmlns="http://www.w3.org/2000/svg" width="15" height="15" viewBox="0 0 15 15">
    <g>
        <g fill="none" stroke="#111" transform="translate(0 0.124) translate(0 -0.124)">
            <circle cx="7.5" cy="7.5" r="7.5" stroke="none"/>
            <circle cx="7.5" cy="7.5" r="7"/>
        </g>
        <g>
            <path d="M222.505 343.22a.849.849 0 0 0 0 1.7.849.849 0 1 0 0-1.7z" transform="translate(0 0.124) translate(-0.07 0.239) translate(-215.194 -333.772)"/>
            <path d="M186.195 140c-1.489 0-2.173.882-2.173 1.478a.632.632 0 0 0 .662.629c.6 0 .353-.849 1.478-.849.551 0 .993.243.993.75 0 .6-.618.937-.982 1.246a2.019 2.019 0 0 0-.739 1.676c0 .573.154.739.607.739.54 0 .651-.243.651-.452a1.385 1.385 0 0 1 .618-1.379 2.823 2.823 0 0 0 1.235-2.018c-.001-1.035-.939-1.82-2.35-1.82z" transform="translate(0 0.124) translate(-0.07 0.239) translate(-178.74 -136.984)"/>
        </g>
    </g>
</svg>
