<svg xmlns="http://www.w3.org/2000/svg" width="20" height="20" viewBox="0 0 20 20">
    <defs>
        <style>
            .cls-2{fill:#fff;stroke:#111}.cls-3{fill:#111}.cls-4{stroke:none}.cls-5{fill:none}
        </style>
    </defs>
    <g id="ico_del" transform="translate(-343 -318)">
        <g id="사각형_3765" class="cls-2">
            <path d="M0 0h12v11a3 3 0 0 1-3 3H3a3 3 0 0 1-3-3V0z" class="cls-4" transform="translate(347 322)"/>
            <path d="M1 .5h10a.5.5 0 0 1 .5.5v10A2.5 2.5 0 0 1 9 13.5H3A2.5 2.5 0 0 1 .5 11V1A.5.5 0 0 1 1 .5z" class="cls-5" transform="translate(347 322)"/>
        </g>
        <g id="사각형_3766" class="cls-2">
            <path d="M2 0h4a2 2 0 0 1 2 2v1H0V2a2 2 0 0 1 2-2z" class="cls-4" transform="translate(349 320)"/>
            <path d="M2 .5h4A1.5 1.5 0 0 1 7.5 2a.5.5 0 0 1-.5.5H1A.5.5 0 0 1 .5 2 1.5 1.5 0 0 1 2 .5z" class="cls-5" transform="translate(349 320)"/>
        </g>
        <rect id="사각형_3767" width="14" height="1" class="cls-3" rx=".5" transform="translate(346 322)"/>
        <rect id="사각형_3768" width="6" height="1" class="cls-3" rx=".5" transform="translate(351.5 325.5) rotate(90)"/>
        <rect id="사각형_3769" width="6" height="1" class="cls-3" rx=".5" transform="translate(355.5 325.5) rotate(90)"/>
    </g>
</svg>
